<?xml version="1.0" encoding="utf-8"?>
<!-- Generator: Adobe Illustrator 24.0.1, SVG Export Plug-In . SVG Version: 6.00 Build 0)  -->
<svg version="1.1" id="Camada_1" xmlns="http://www.w3.org/2000/svg" xmlns:xlink="http://www.w3.org/1999/xlink" x="0px" y="0px"
	 viewBox="0 0 1080 1080" style="enable-background:new 0 0 1080 1080;" xml:space="preserve">
<style type="text/css">
	.st0{fill:url(#SVGID_1_);}
	.st1{fill:url(#SVGID_2_);}
	.st2{fill:url(#SVGID_3_);}
	.st3{fill:url(#SVGID_4_);}
	.st4{fill:url(#SVGID_5_);}
	.st5{fill:url(#SVGID_6_);}
</style>
<g>
	<linearGradient id="SVGID_1_" gradientUnits="userSpaceOnUse" x1="4" y1="500.3625" x2="945.9614" y2="500.3625">
		<stop  offset="0" style="stop-color:#A2E558"/>
		<stop  offset="1" style="stop-color:#087808"/>
	</linearGradient>
	<path class="st0" d="M4,537.73c0,9.12,0.48,82.5,24.05,158.28c52.46,168.64,194.63,270.03,234.12,296.58
		c0-119.16,0-357.49,0-357.49s0-6.95,0-10.43c0,0,0,0,0,0c-8.54-26.93-13.13-55.66-13.13-85.41c0-29.75,4.59-58.44,13.13-85.41
		c36.22-114.52,143.32-197.52,269.8-197.52c98.53,0,185.31,50.35,235.98,126.78c0.06,0.09,0.2,0.11,0.28,0.03l177.73-177.73
		C848.93,85.08,700.27,8.13,533.63,8.13c-56.25,0-110.46,8.77-161.33,25.02c-20.78,6.64-63.39,21.69-110.12,49.75
		C91.62,185.31,34.08,360.19,27.78,380.33C18.65,409.53,4,465.61,4,537.73z"/>
	<linearGradient id="SVGID_2_" gradientUnits="userSpaceOnUse" x1="352.4359" y1="708.8597" x2="946.1431" y2="708.8597">
		<stop  offset="0" style="stop-color:#A2E558"/>
		<stop  offset="1" style="stop-color:#087808"/>
	</linearGradient>
	<path class="st1" d="M769.43,693.2c-50.28,77.4-137.38,128.69-236.48,129.03v-94.62V350.36v0h-0.98c-1.55,0-3.1,0.02-4.64,0.06
		c-97.64,2.36-174.9,83.69-174.9,181.35v65.19v161.04v0l0,277.1c0,0.29,0.18,0.55,0.45,0.64c56.17,20.39,116.83,31.54,180.07,31.61
		h0.68c166.71,0,315.41-77.01,412.51-197.43c0.01-0.01,0.01-0.02,0-0.02L769.43,693.2z"/>
	<linearGradient id="SVGID_3_" gradientUnits="userSpaceOnUse" x1="857.3394" y1="715.8295" x2="340.4521" y2="1014.2545">
		<stop  offset="0" style="stop-color:#A2E558"/>
		<stop  offset="1" style="stop-color:#087808"/>
	</linearGradient>
	<path class="st2" d="M946.04,869.47L769.33,692.76c-38.01,58.5-97.05,102.07-166.41,120.01c-83.32,24.24-176.65,4.79-250.58-51.56
		l0,273.44c0,0.29,0.18,0.55,0.45,0.64c56.17,20.39,116.83,31.54,180.07,31.61h0.68c166.71,0,315.41-77.02,412.51-197.43
		C946.05,869.48,946.05,869.47,946.04,869.47z"/>
	<linearGradient id="SVGID_4_" gradientUnits="userSpaceOnUse" x1="5.3374" y1="713.6226" x2="263.5146" y2="713.6226">
		<stop  offset="0" style="stop-color:#A2E558"/>
		<stop  offset="1" style="stop-color:#087808"/>
	</linearGradient>
	<path class="st3" d="M263.51,690.17c-41.34-31.1-85.27-68.42-129.28-113.07c-46.83-47.52-86.11-95.6-119.08-141.9
		c-5.45,28.05-9.82,62.62-9.82,101.98c0,9.12,0.48,82.5,24.05,158.28C81.85,864.1,224.03,965.49,263.51,992.05
		C263.51,908.95,263.51,767.94,263.51,690.17z"/>
	<g>
		<g>
			<linearGradient id="SVGID_5_" gradientUnits="userSpaceOnUse" x1="908.6525" y1="536.3229" x2="943.1382" y2="536.3229">
				<stop  offset="0" style="stop-color:#A2E558"/>
				<stop  offset="1" style="stop-color:#56AF30"/>
			</linearGradient>
			<path class="st4" d="M933.46,555.79l-7.51-10.85h-0.44h-7.84v10.85h-9.01v-38.93h16.86c10.4,0,16.91,5.39,16.91,14.13
				c0,5.84-2.95,10.12-8.01,12.29l8.73,12.51H933.46z M925.01,524.2h-7.34v13.57h7.34c5.51,0,8.29-2.56,8.29-6.78
				C933.29,526.7,930.51,524.2,925.01,524.2z"/>
		</g>
		<linearGradient id="SVGID_6_" gradientUnits="userSpaceOnUse" x1="879.1786" y1="537.4932" x2="967" y2="537.4932">
			<stop  offset="0" style="stop-color:#A2E558"/>
			<stop  offset="1" style="stop-color:#56AF30"/>
		</linearGradient>
		<path class="st5" d="M923.09,493.58c-24.25,0-43.91,19.66-43.91,43.91s19.66,43.91,43.91,43.91S967,561.74,967,537.49
			S947.34,493.58,923.09,493.58z M923.09,571.27c-18.65,0-33.78-15.12-33.78-33.78c0-18.65,15.12-33.78,33.78-33.78
			s33.78,15.12,33.78,33.78C956.87,556.15,941.74,571.27,923.09,571.27z"/>
	</g>
</g>
</svg>
